<?xml version="1.0" encoding="UTF-8"?>
<svg xmlns="http://www.w3.org/2000/svg" version="1.1" viewBox="0 0 1000 470">
  <!-- Generator: Adobe Illustrator 28.7.1, SVG Export Plug-In . SVG Version: 1.2.0 Build 142)  -->
  <g>
    <g id="Layer_1">
      <g>
        <path d="M140.89,100.85c.44,35.46-22.19,50.04-41.12,50.48-11.1.22-20.89-4.57-24.59-12.84.22,30.68,3.26,49.82,12.62,56.35l-.22,1.74h-51.13l-.22-1.74c14.36-8.92,12.84-52.22,12.84-75.93s-.43-66.79-13.05-72.89l.22-1.74,47.87-.22c38.95-.44,56.57,28.72,56.79,56.79ZM89.76,142.19c10.01.44,21.54-14.79,20.89-42.86-.43-23.93-11.1-49.17-35.46-49.17l-.22,62.66c0,19.58,7.18,29.15,14.79,29.37Z"/>
        <path d="M205.73,199.19c-31.11,0-60.27-24.37-60.27-77.67s33.51-80.5,67.23-80.5c31.77,0,62.44,24.59,62.44,76.15s-35.25,82.02-69.41,82.02ZM224.87,188.96c13.49,0,23.71-13.05,23.71-42.86,0-55.92-30.24-94.64-53.09-94.64-13.49,0-23.5,13.49-23.5,44.82,0,55.7,30.02,92.68,52.87,92.68Z"/>
        <path d="M330.4,199.19c-33.07-1.52-48.3-18.93-48.3-33.29,0-10.66,8.05-19.58,21.97-18.93,3.05,34.81,21.1,45.69,35.25,45.69,11.97,0,21.54-10.01,21.54-22.41,0-35.03-76.58-36.55-76.58-85.94,0-25.24,21.1-43.3,49.82-43.3s42.64,15.88,42.64,30.46c0,9.57-5.87,18.49-18.28,21.32h-1.31c-1.52-30.9-19.8-44.6-34.16-44.6-9.79,0-18.06,6.74-18.06,20.02,0,30.9,75.5,35.9,75.5,83.77,0,31.55-25.24,48.3-50.04,47.21Z"/>
        <path d="M412.65,194.84c12.4-8.49,13.05-37.64,13.05-73.54,0-21.97,0-52-1.52-73.97-30.68,12.84-32.2,36.77-35.68,51.13l-1.09.22c-1.52-16.75-4.35-37.64-8.92-54.39h120.1c-4.57,16.75-7.62,37.64-8.92,54.39l-1.09-.22c-3.26-14.58-5.22-38.29-35.46-51.13-1.52,21.97-1.52,52-1.52,73.97,0,35.9.65,65.92,12.84,73.54l-.22,1.74h-51.35l-.22-1.74Z"/>
        <path d="M583.01,145.45v-.43c3.48-3.05,7.4-4.57,11.31-4.57,8.05,0,15.67,6.53,15.67,16.97,0,26.33-25.24,41.77-50.26,41.77-30.24,0-61.57-23.5-61.57-70.49,0-60.27,35.9-87.68,69.19-87.68,29.15,0,40.47,16.54,40.47,31.77,0,10.23-5.22,19.58-13.49,23.28h-1.52c-9.14-28.72-28.94-44.38-44.6-44.38-12.18,0-23.5,11.97-23.5,41.56,0,46.13,24.8,97.25,47.87,97.25,16.97,0,16.97-35.25,10.44-45.04Z"/>
        <path d="M604.55,196.58l-.22-1.74c10.44-9.79,15.88-13.05,27.41-59.18,7.4-28.94,16.1-63.97,22.41-92.47h15.23c4.79,25.67,10.88,46.78,18.93,73.97,14.36,49.39,24.37,75.5,33.72,77.67l-.22,1.74h-55.7l-.22-1.74c10.01-8.49,4.35-30.89-.22-49.61-8.7,0-31.98,6.31-35.03,19.8-3.05,16.1-2.61,23.93,5.22,29.81l-.22,1.74h-31.11ZM633.05,153.93c4.79-9.57,20.67-15.88,30.46-16.97l-13.49-48.74-16.97,65.71Z"/>
        <path d="M920.25,234.87c15.45,0,29.16-5,38.29-21.54,8.05,4.57,11.97,11.97,11.97,19.58,0,15.23-14.79,31.98-39.6,32.85-73.76,2.61-124.01-61.79-169.05-136.63-.43,30.46,1.52,58.09,12.84,65.71l-.43,1.74h-51.78v-1.74c14.79-9.79,13.05-52.22,13.05-75.93s-.65-66.79-13.05-72.89l.22-1.74,46.99-.22c38.51-.44,56.57,20.67,56.79,48.95.22,35.46-20.89,44.82-39.81,45.25-3.48,0-4.35.87-7.62,0,18.49,29.59,90.29,96.6,141.2,96.6ZM797.54,91.49c-.43-21.76-10.23-41.34-35.68-41.34v53.74c0,19.58,6.53,26.33,14.14,26.54,10.01.43,22.19-12.84,21.54-38.95Z"/>
        <path d="M836.05,194.84c12.19-7.83,12.84-35.9,12.84-75.93,0-36.99-1.09-65.49-12.84-72.89l.22-1.74,45.47-.22c35.68-.22,68.97,21.32,68.97,74.63s-33.51,78.32-68.97,78.11l-45.47-.22-.22-1.74ZM919.6,118.69c0-37.2-9.79-68.97-39.81-68.97h-3.92c-1.3,40.47-1.09,79.41-.65,119.45.22,11.97,1.96,21.1,9.57,21.1,30.02,0,34.81-33.94,34.81-71.58Z"/>
        <path d="M63.65,368.9c12.4-8.49,13.05-37.64,13.05-73.54,0-21.97,0-52-1.52-73.97-30.68,12.84-32.2,36.77-35.68,51.13l-1.09.22c-1.52-16.75-4.35-37.64-8.92-54.39h120.1c-4.57,16.75-7.62,37.64-8.92,54.39l-1.09-.22c-3.26-14.58-5.22-38.29-35.46-51.13-1.52,21.97-1.52,52-1.52,73.97,0,35.9.65,65.92,12.84,73.54l-.22,1.74h-51.35l-.22-1.74Z"/>
        <path d="M349.98,408.93c15.45,0,29.15-5,38.29-21.54,8.05,4.57,11.97,11.97,11.97,19.58,0,15.23-14.79,31.98-39.6,32.85-73.76,2.61-124.02-61.79-169.05-136.63-.44,30.46,1.52,58.09,12.84,65.71l-.43,1.74h-51.78v-1.74c14.79-9.79,13.05-52.22,13.05-75.93s-.65-66.79-13.05-72.89l.22-1.74,47-.22c38.51-.44,56.57,20.67,56.79,48.95.22,35.46-20.89,44.82-39.82,45.25-3.48,0-4.35.87-7.61,0,18.49,29.59,90.29,96.6,141.2,96.6ZM227.27,265.56c-.44-21.76-10.23-41.34-35.68-41.34v53.74c0,19.58,6.53,26.33,14.14,26.54,10.01.43,22.19-12.84,21.54-38.95Z"/>
        <path d="M257.73,370.64l-.22-1.74c10.44-9.79,15.88-13.05,27.41-59.18,7.4-28.94,16.1-63.97,22.41-92.47h15.23c4.79,25.67,10.88,46.78,18.93,73.97,14.36,49.39,24.37,75.5,33.72,77.67l-.22,1.74h-55.7l-.22-1.74c10.01-8.49,4.35-30.89-.22-49.61-8.7,0-31.98,6.31-35.03,19.8-3.05,16.1-2.61,23.93,5.22,29.81l-.22,1.74h-31.11ZM286.23,328c4.79-9.57,20.67-15.88,30.46-16.97l-13.49-48.74-16.97,65.71Z"/>
        <path d="M375.44,368.9c12.4-8.05,13.05-38.51,13.05-67.23v-10.01c0-39.16-2.18-64.4-13.05-71.58l.22-1.74h50.04l.22,1.74c-10.01,7.18-12.84,26.33-12.84,70.93,0,36.12.22,70.28,12.84,77.89l-.22,1.74h-50.04l-.22-1.74Z"/>
        <path d="M434.62,368.9c13.05-10.01,13.05-38.07,13.05-77.02,0-29.15-.43-63.53-13.05-71.8l.22-1.74h51.13l.22,1.74c-13.27,8.92-12.18,46.13-12.62,71.8,0,21.32.65,36.99,1.52,58.53.22,7.61,1.31,14.14,8.27,14.14,22.19.22,29.15-22.19,37.86-59.4l1.31-.22c.22,18.93,1.96,48.95,5.66,65.71h-93.34l-.22-1.74Z"/>
        <path d="M579.3,373.25c-33.07-1.52-48.3-18.93-48.3-33.29,0-10.66,8.05-19.58,21.97-18.93,3.05,34.81,21.1,45.69,35.25,45.69,11.97,0,21.54-10.01,21.54-22.41,0-35.03-76.58-36.55-76.58-85.94,0-25.24,21.1-43.3,49.82-43.3s42.64,15.88,42.64,30.46c0,9.57-5.87,18.49-18.28,21.32h-1.31c-1.52-30.9-19.8-44.6-34.16-44.6-9.79,0-18.06,6.74-18.06,20.02,0,30.9,75.5,35.9,75.5,83.77,0,31.55-25.24,48.3-50.04,47.21Z"/>
      </g>
    </g>
  </g>
</svg>